<svg width="48" height="48" viewBox="0 0 48 48" fill="none" xmlns="http://www.w3.org/2000/svg">
<path d="M35.55 31.82C35.55 32.788 35.9345 33.7164 36.619 34.4009C37.3036 35.0854 38.2319 35.47 39.2 35.47C40.168 35.47 41.0964 35.0854 41.7809 34.4009C42.4654 33.7164 42.85 32.788 42.85 31.82C42.85 30.852 42.4654 29.9236 41.7809 29.2391C41.0964 28.5546 40.168 28.17 39.2 28.17C38.2319 28.17 37.3036 28.5546 36.619 29.2391C35.9345 29.9236 35.55 30.852 35.55 31.82Z" fill="white"/>
<path d="M39.2 33.53C38.4042 33.5259 37.6316 33.2619 36.9997 32.778C36.3679 32.2942 35.9115 31.6172 35.7 30.85C35.6113 31.1761 35.5642 31.5121 35.56 31.85C35.6089 32.7837 36.0143 33.663 36.6925 34.3066C37.3707 34.9502 38.27 35.309 39.205 35.309C40.14 35.309 41.0393 34.9502 41.7175 34.3066C42.3957 33.663 42.8011 32.7837 42.85 31.85C42.8487 31.5112 42.7981 31.1743 42.7 30.85C42.4915 31.6189 42.0359 32.2978 41.4034 32.7821C40.7709 33.2664 39.9966 33.5292 39.2 33.53Z" fill="#F0F0F0"/>
<path d="M35.55 31.82C35.55 32.788 35.9345 33.7164 36.619 34.4009C37.3036 35.0854 38.2319 35.47 39.2 35.47C40.168 35.47 41.0964 35.0854 41.7809 34.4009C42.4654 33.7164 42.85 32.788 42.85 31.82C42.85 30.852 42.4654 29.9236 41.7809 29.2391C41.0964 28.5546 40.168 28.17 39.2 28.17C38.2319 28.17 37.3036 28.5546 36.619 29.2391C35.9345 29.9236 35.55 30.852 35.55 31.82Z" stroke="#45413C" stroke-linecap="round" stroke-linejoin="round"/>
<path d="M25 2.81C20.8891 2.81 16.9467 4.44303 14.0398 7.34985C11.133 10.2567 9.5 14.1991 9.5 18.31V19.06H37.3V30.29C38.0113 30.29 38.7156 30.1497 39.3726 29.8772C40.0297 29.6047 40.6265 29.2053 41.129 28.7019C41.6315 28.1985 42.0298 27.6009 42.3011 26.9434C42.5724 26.2859 42.7113 25.5813 42.71 24.87V20.53C42.7113 18.2035 42.2542 15.8994 41.3648 13.7496C40.4754 11.5998 39.1711 9.64626 37.5264 8.00068C35.8817 6.35509 33.929 5.04969 31.7796 4.15905C29.6303 3.26841 27.3266 2.81 25 2.81Z" fill="#FF6242"/>
<path d="M25 2.81C20.8891 2.81 16.9467 4.44303 14.0398 7.34985C11.133 10.2567 9.5 14.1991 9.5 18.31H9.9C10.7065 14.9128 12.6363 11.8873 15.3769 9.72389C18.1176 7.56044 21.5084 6.3857 25 6.39C29.6927 6.40059 34.1896 8.27219 37.5041 11.5942C40.8186 14.9162 42.68 19.4173 42.68 24.11V20.53C42.6827 15.8365 40.8221 11.3338 37.507 8.01127C34.1919 4.6887 29.6935 2.81795 25 2.81Z" fill="#FF866E"/>
<path d="M25 2.81C20.8891 2.81 16.9467 4.44303 14.0398 7.34985C11.133 10.2567 9.5 14.1991 9.5 18.31V19.06H37.3V30.29C38.0113 30.29 38.7156 30.1497 39.3726 29.8772C40.0297 29.6047 40.6265 29.2053 41.129 28.7019C41.6315 28.1985 42.0298 27.6009 42.3011 26.9434C42.5724 26.2859 42.7113 25.5813 42.71 24.87V20.53C42.7113 18.2035 42.2542 15.8994 41.3648 13.7496C40.4754 11.5998 39.1711 9.64626 37.5264 8.00068C35.8817 6.35509 33.929 5.04969 31.7796 4.15905C29.6303 3.26841 27.3266 2.81 25 2.81Z" stroke="#45413C" stroke-linecap="round" stroke-linejoin="round"/>
<path d="M37.27 22.42C33.0071 20.9396 28.5109 20.245 24 20.37C19.4891 20.245 14.9929 20.9396 10.73 22.42C9.99465 22.5234 9.32142 22.889 8.83426 23.4494C8.3471 24.0098 8.07883 24.7274 8.07883 25.47C8.07883 26.2126 8.3471 26.9301 8.83426 27.4906C9.32142 28.051 9.99465 28.4166 10.73 28.52C12 35.25 17.47 40.31 24 40.31C30.53 40.31 36 35.25 37.27 28.52C38.0053 28.4166 38.6786 28.051 39.1657 27.4906C39.6529 26.9301 39.9212 26.2126 39.9212 25.47C39.9212 24.7274 39.6529 24.0098 39.1657 23.4494C38.6786 22.889 38.0053 22.5234 37.27 22.42Z" fill="#FFCEBF" stroke="#45413C" stroke-linecap="round" stroke-linejoin="round"/>
<path opacity="0.15" d="M11.5 44.5C11.5 44.8978 12.817 45.2794 15.1612 45.5607C17.5054 45.842 20.6848 46 24 46C27.3152 46 30.4946 45.842 32.8388 45.5607C35.183 45.2794 36.5 44.8978 36.5 44.5C36.5 44.1022 35.183 43.7206 32.8388 43.4393C30.4946 43.158 27.3152 43 24 43C20.6848 43 17.5054 43.158 15.1612 43.4393C12.817 43.7206 11.5 44.1022 11.5 44.5Z" fill="#45413C"/>
<path d="M32.13 24.52C32.13 24.7483 32.062 24.9714 31.9347 25.1609C31.8074 25.3505 31.6266 25.4978 31.4153 25.5842C31.204 25.6707 30.9718 25.6922 30.7482 25.6462C30.5246 25.6002 30.3197 25.4887 30.1597 25.3258C29.9997 25.163 29.8918 24.9562 29.8497 24.7318C29.8076 24.5075 29.8333 24.2756 29.9234 24.0659C30.0135 23.8561 30.164 23.6779 30.3557 23.554C30.5475 23.4301 30.7717 23.366 31 23.37C31.3015 23.3752 31.5889 23.4987 31.8003 23.7138C32.0116 23.9289 32.13 24.2184 32.13 24.52Z" fill="#45413C" stroke="#45413C" stroke-linecap="round" stroke-linejoin="round"/>
<path d="M31.39 29.4C31.39 29.5169 31.4286 29.6326 31.5034 29.7406C31.5783 29.8486 31.6881 29.9467 31.8264 30.0293C31.9648 30.112 32.129 30.1775 32.3098 30.2223C32.4906 30.267 32.6843 30.29 32.88 30.29C33.0757 30.29 33.2694 30.267 33.4502 30.2223C33.631 30.1775 33.7952 30.112 33.9336 30.0293C34.072 29.9467 34.1817 29.8486 34.2566 29.7406C34.3315 29.6326 34.37 29.5169 34.37 29.4C34.37 29.164 34.213 28.9376 33.9336 28.7707C33.6542 28.6038 33.2752 28.51 32.88 28.51C32.4848 28.51 32.1059 28.6038 31.8264 28.7707C31.547 28.9376 31.39 29.164 31.39 29.4Z" fill="#FFB59E"/>
<path d="M15.87 24.52C15.87 24.7483 15.938 24.9714 16.0653 25.1609C16.1926 25.3505 16.3734 25.4978 16.5847 25.5842C16.796 25.6707 17.0282 25.6922 17.2518 25.6462C17.4754 25.6002 17.6803 25.4887 17.8403 25.3258C18.0003 25.163 18.1082 24.9562 18.1503 24.7318C18.1924 24.5075 18.1667 24.2756 18.0766 24.0659C17.9865 23.8561 17.836 23.6779 17.6443 23.554C17.4525 23.4301 17.2283 23.366 17 23.37C16.6985 23.3752 16.4111 23.4987 16.1997 23.7138C15.9884 23.9289 15.8699 24.2184 15.87 24.52Z" fill="#45413C" stroke="#45413C" stroke-linecap="round" stroke-linejoin="round"/>
<path d="M13.63 29.4C13.63 29.636 13.787 29.8624 14.0664 30.0293C14.3458 30.1962 14.7248 30.29 15.12 30.29C15.5152 30.29 15.8942 30.1962 16.1736 30.0293C16.453 29.8624 16.61 29.636 16.61 29.4C16.61 29.164 16.453 28.9376 16.1736 28.7707C15.8942 28.6038 15.5152 28.51 15.12 28.51C14.7248 28.51 14.3458 28.6038 14.0664 28.7707C13.787 28.9376 13.63 29.164 13.63 29.4Z" fill="#FFB59E"/>
<path d="M35.35 20.13V27.07C35.2884 28.5363 34.8843 29.9679 34.17 31.25C33.8859 31.7172 33.5091 32.1212 33.0627 32.4371C32.6163 32.7529 32.11 32.9739 31.5748 33.0864C31.0397 33.1989 30.4872 33.2004 29.9515 33.0909C29.4157 32.9815 28.9081 32.7633 28.46 32.45C27.1568 31.5308 25.5945 31.0509 24 31.08C22.4055 31.0509 20.8432 31.5308 19.54 32.45C19.0919 32.7633 18.5843 32.9815 18.0485 33.0909C17.5128 33.2004 16.9603 33.1989 16.4252 33.0864C15.8901 32.9739 15.3837 32.7529 14.9373 32.4371C14.491 32.1212 14.1141 31.7172 13.83 31.25C13.1158 29.9679 12.7116 28.5363 12.65 27.07V20.13L10.73 21.81V31.81C10.73 39.14 16.67 43.5 24 43.5C31.33 43.5 37.27 39.14 37.27 31.81V21.81L35.35 20.13Z" fill="#F0F0F0"/>
<path d="M24 40.87C16.67 40.87 10.73 36.51 10.73 29.18V31.81C10.73 39.14 16.67 43.5 24 43.5C31.33 43.5 37.27 39.14 37.27 31.81V29.18C37.27 36.51 31.33 40.87 24 40.87Z" fill="#E0E0E0"/>
<path d="M35.35 20.13V27.07C35.2884 28.5363 34.8843 29.9679 34.17 31.25C33.8859 31.7172 33.5091 32.1212 33.0627 32.4371C32.6163 32.7529 32.11 32.9739 31.5748 33.0864C31.0397 33.1989 30.4872 33.2004 29.9515 33.0909C29.4157 32.9815 28.9081 32.7633 28.46 32.45C27.1568 31.5308 25.5945 31.0509 24 31.08C22.4055 31.0509 20.8432 31.5308 19.54 32.45C19.0919 32.7633 18.5843 32.9815 18.0485 33.0909C17.5128 33.2004 16.9603 33.1989 16.4252 33.0864C15.8901 32.9739 15.3837 32.7529 14.9373 32.4371C14.491 32.1212 14.1141 31.7172 13.83 31.25C13.1158 29.9679 12.7116 28.5363 12.65 27.07V20.13L10.73 21.81V31.81C10.73 39.14 16.67 43.5 24 43.5C31.33 43.5 37.27 39.14 37.27 31.81V21.81L35.35 20.13Z" stroke="#45413C" stroke-linecap="round" stroke-linejoin="round"/>
<path d="M21.19 34.83C21.19 34.83 21.88 35.76 24 35.76C26.12 35.76 26.81 34.83 26.81 34.83" stroke="#45413C" stroke-linecap="round" stroke-linejoin="round"/>
<path d="M24 15.41C15.54 15.41 8.67999 17.57 8.67999 20.24C8.75272 20.7714 8.98924 21.2669 9.35665 21.6576C9.72405 22.0483 10.2041 22.3148 10.73 22.42C14.9929 20.9396 19.4891 20.245 24 20.37C28.5109 20.245 33.0071 20.9396 37.27 22.42C37.7867 22.3056 38.2557 22.0351 38.6135 21.6451C38.9713 21.2552 39.2005 20.7646 39.27 20.24C39.32 17.57 32.46 15.41 24 15.41Z" fill="white"/>
<path d="M24 18.32C17.15 18.32 11.36 19.73 9.39001 21.69C9.76233 22.0502 10.2255 22.3025 10.73 22.42C14.9929 20.9396 19.4891 20.245 24 20.37C28.5109 20.245 33.0071 20.9396 37.27 22.42C37.7746 22.3025 38.2377 22.0502 38.61 21.69C36.64 19.73 30.85 18.32 24 18.32Z" fill="#E0E0E0"/>
<path d="M24 15.41C15.54 15.41 8.67999 17.57 8.67999 20.24C8.75272 20.7714 8.98924 21.2669 9.35665 21.6576C9.72405 22.0483 10.2041 22.3148 10.73 22.42C14.9929 20.9396 19.4891 20.245 24 20.37C28.5109 20.245 33.0071 20.9396 37.27 22.42C37.7867 22.3056 38.2557 22.0351 38.6135 21.6451C38.9713 21.2552 39.2005 20.7646 39.27 20.24C39.32 17.57 32.46 15.41 24 15.41Z" stroke="#45413C" stroke-linecap="round" stroke-linejoin="round"/>
<path d="M38.06 18.32C38.06 11.06 32.88 8.65 32.88 8.65" stroke="#45413C" stroke-linecap="round" stroke-linejoin="round"/>
</svg>
