<svg width="48" height="48" viewBox="0 0 48 48" fill="none" xmlns="http://www.w3.org/2000/svg">
<path opacity="0.15" d="M12 45.5C12 45.8978 13.2643 46.2794 15.5147 46.5607C17.7652 46.842 20.8174 47 24 47C27.1826 47 30.2348 46.842 32.4853 46.5607C34.7357 46.2794 36 45.8978 36 45.5C36 45.1022 34.7357 44.7206 32.4853 44.4393C30.2348 44.158 27.1826 44 24 44C20.8174 44 17.7652 44.158 15.5147 44.4393C13.2643 44.7206 12 45.1022 12 45.5Z" fill="#45413C"/>
<path d="M30.48 44.17C30.5729 44.293 30.6296 44.4395 30.6439 44.593C30.6582 44.7464 30.6295 44.9009 30.561 45.039C30.4925 45.177 30.3869 45.2933 30.256 45.3747C30.1251 45.4562 29.9741 45.4995 29.82 45.5H18.07C17.9159 45.4995 17.7649 45.4562 17.634 45.3747C17.5031 45.2933 17.3975 45.177 17.329 45.039C17.2605 44.9009 17.2318 44.7464 17.2461 44.593C17.2604 44.4395 17.3171 44.293 17.41 44.17C18.8582 42.2403 19.6407 39.8926 19.64 37.48V33.66H28.25V37.48C28.2493 39.8926 29.0318 42.2403 30.48 44.17Z" fill="#DEA47A"/>
<path d="M28.88 41.16C28.4599 39.9787 28.2468 38.7338 28.25 37.48V33.66H19.64V37.48C19.6342 38.7338 19.4178 39.9778 19 41.16H28.88Z" fill="#BF8256"/>
<path d="M30.48 44.17C30.5729 44.293 30.6296 44.4395 30.6439 44.593C30.6582 44.7464 30.6295 44.9009 30.561 45.039C30.4925 45.177 30.3869 45.2933 30.256 45.3747C30.1251 45.4562 29.9741 45.4995 29.82 45.5H18.07C17.9159 45.4995 17.7649 45.4562 17.634 45.3747C17.5031 45.2933 17.3975 45.177 17.329 45.039C17.2605 44.9009 17.2318 44.7464 17.2461 44.593C17.2604 44.4395 17.3171 44.293 17.41 44.17C18.8582 42.2403 19.6407 39.8926 19.64 37.48V33.66H28.25V37.48C28.2493 39.8926 29.0318 42.2403 30.48 44.17Z" stroke="#45413C" stroke-linecap="round" stroke-linejoin="round"/>
<path d="M38.17 34.32L34.32 29.74C34.2118 29.6103 34.1428 29.4525 34.121 29.285C34.0992 29.1176 34.1254 28.9473 34.1967 28.7942C34.268 28.6411 34.3814 28.5115 34.5237 28.4204C34.6659 28.3294 34.8311 28.2807 35 28.28H35.59C35.8802 28.2788 36.1637 28.1929 36.4058 28.0328C36.6478 27.8728 36.8379 27.6455 36.9526 27.3789C37.0672 27.1124 37.1016 26.8181 37.0514 26.5323C37.0012 26.2465 36.8687 25.9815 36.67 25.77L32.67 21.48C32.5246 21.3281 32.4271 21.1368 32.3898 20.9299C32.3525 20.7229 32.377 20.5096 32.4602 20.3165C32.5434 20.1234 32.6817 19.9591 32.8577 19.8441C33.0337 19.7292 33.2397 19.6686 33.45 19.67C33.7399 19.6709 34.0238 19.5872 34.2669 19.4291C34.51 19.271 34.7016 19.0455 34.8184 18.7801C34.9352 18.5147 34.972 18.221 34.9243 17.935C34.8766 17.649 34.7465 17.3832 34.55 17.17L25.55 7.39C25.347 7.17291 25.1016 6.99983 24.8289 6.8815C24.5563 6.76317 24.2622 6.70212 23.965 6.70212C23.6678 6.70212 23.3737 6.76317 23.1011 6.8815C22.8284 6.99983 22.583 7.17291 22.38 7.39L13.38 17.17C13.184 17.3825 13.0541 17.6475 13.0061 17.9326C12.9581 18.2176 12.9941 18.5105 13.1096 18.7755C13.2251 19.0405 13.4153 19.2662 13.6568 19.425C13.8984 19.5838 14.1809 19.6689 14.47 19.67C14.6791 19.6711 14.8834 19.733 15.0581 19.848C15.2327 19.963 15.3703 20.1263 15.4539 20.318C15.5376 20.5096 15.5638 20.7215 15.5294 20.9277C15.4949 21.134 15.4014 21.3259 15.26 21.48L11.26 25.77C11.0608 25.9822 10.928 26.248 10.8782 26.5348C10.8283 26.8215 10.8635 27.1166 10.9794 27.3835C11.0954 27.6505 11.2869 27.8776 11.5305 28.0369C11.7741 28.1963 12.059 28.2808 12.35 28.28H12.94C13.1089 28.2807 13.2741 28.3294 13.4163 28.4204C13.5586 28.5115 13.672 28.6411 13.7433 28.7942C13.8146 28.9473 13.8408 29.1176 13.819 29.285C13.7972 29.4525 13.7282 29.6103 13.62 29.74L9.72 34.32C9.43864 34.6423 9.25639 35.0389 9.19516 35.4623C9.13393 35.8857 9.19634 36.3178 9.37487 36.7066C9.55341 37.0953 9.84046 37.4242 10.2015 37.6537C10.5626 37.8831 10.9822 38.0034 11.41 38H36.47C36.8986 38.0054 37.3197 37.8865 37.6822 37.6578C38.0448 37.4291 38.3334 37.1003 38.5131 36.7112C38.6929 36.322 38.7562 35.8892 38.6953 35.4648C38.6344 35.0405 38.452 34.6429 38.17 34.32Z" fill="#6DD627"/>
<path d="M14.28 19.66L22.36 10.9C22.563 10.6829 22.8084 10.5098 23.0811 10.3915C23.3537 10.2732 23.6478 10.2121 23.945 10.2121C24.2422 10.2121 24.5363 10.2732 24.8089 10.3915C25.0816 10.5098 25.327 10.6829 25.53 10.9L33.61 19.66C33.8864 19.6345 34.15 19.5318 34.3708 19.3637C34.5916 19.1955 34.7607 18.9686 34.8587 18.709C34.9567 18.4493 34.9798 18.1673 34.9252 17.8952C34.8706 17.6231 34.7406 17.3718 34.55 17.17L25.55 7.39C25.347 7.17291 25.1016 6.99983 24.8289 6.8815C24.5563 6.76317 24.2622 6.70212 23.965 6.70212C23.6678 6.70212 23.3737 6.76317 23.1011 6.8815C22.8284 6.99983 22.583 7.17291 22.38 7.39L13.38 17.17C13.1905 17.3692 13.0603 17.6172 13.0039 17.8862C12.9474 18.1552 12.967 18.4346 13.0604 18.6932C13.1539 18.9517 13.3175 19.179 13.5329 19.3498C13.7483 19.5206 14.007 19.628 14.28 19.66Z" fill="#9CEB60"/>
<path d="M38.17 34.32L34.32 29.74C34.2118 29.6103 34.1428 29.4525 34.121 29.285C34.0992 29.1176 34.1254 28.9473 34.1967 28.7942C34.268 28.6411 34.3814 28.5115 34.5237 28.4204C34.6659 28.3294 34.8311 28.2807 35 28.28H35.59C35.8802 28.2788 36.1637 28.1929 36.4058 28.0328C36.6478 27.8728 36.8379 27.6455 36.9526 27.3789C37.0672 27.1124 37.1016 26.8181 37.0514 26.5323C37.0012 26.2465 36.8687 25.9815 36.67 25.77L32.67 21.48C32.5246 21.3281 32.4271 21.1368 32.3898 20.9299C32.3525 20.7229 32.377 20.5096 32.4602 20.3165C32.5434 20.1234 32.6817 19.9591 32.8577 19.8441C33.0337 19.7292 33.2397 19.6686 33.45 19.67C33.7399 19.6709 34.0238 19.5872 34.2669 19.4291C34.51 19.271 34.7016 19.0455 34.8184 18.7801C34.9352 18.5147 34.972 18.221 34.9243 17.935C34.8766 17.649 34.7465 17.3832 34.55 17.17L25.55 7.39C25.347 7.17291 25.1016 6.99983 24.8289 6.8815C24.5563 6.76317 24.2622 6.70212 23.965 6.70212C23.6678 6.70212 23.3737 6.76317 23.1011 6.8815C22.8284 6.99983 22.583 7.17291 22.38 7.39L13.38 17.17C13.184 17.3825 13.0541 17.6475 13.0061 17.9326C12.9581 18.2176 12.9941 18.5105 13.1096 18.7755C13.2251 19.0405 13.4153 19.2662 13.6568 19.425C13.8984 19.5838 14.1809 19.6689 14.47 19.67C14.6791 19.6711 14.8834 19.733 15.0581 19.848C15.2327 19.963 15.3703 20.1263 15.4539 20.318C15.5376 20.5096 15.5638 20.7215 15.5294 20.9277C15.4949 21.134 15.4014 21.3259 15.26 21.48L11.26 25.77C11.0608 25.9822 10.928 26.248 10.8782 26.5348C10.8283 26.8215 10.8635 27.1166 10.9794 27.3835C11.0954 27.6505 11.2869 27.8776 11.5305 28.0369C11.7741 28.1963 12.059 28.2808 12.35 28.28H12.94C13.1089 28.2807 13.2741 28.3294 13.4163 28.4204C13.5586 28.5115 13.672 28.6411 13.7433 28.7942C13.8146 28.9473 13.8408 29.1176 13.819 29.285C13.7972 29.4525 13.7282 29.6103 13.62 29.74L9.72 34.32C9.43864 34.6423 9.25639 35.0389 9.19516 35.4623C9.13393 35.8857 9.19634 36.3178 9.37487 36.7066C9.55341 37.0953 9.84046 37.4242 10.2015 37.6537C10.5626 37.8831 10.9822 38.0034 11.41 38H36.47C36.8986 38.0054 37.3197 37.8865 37.6822 37.6578C38.0448 37.4291 38.3334 37.1003 38.5131 36.7112C38.6929 36.322 38.7562 35.8892 38.6953 35.4648C38.6344 35.0405 38.452 34.6429 38.17 34.32Z" stroke="#45413C" stroke-linecap="round" stroke-linejoin="round"/>
<path d="M23.94 6.69L22.81 7.29C22.6636 7.36843 22.4979 7.4038 22.3322 7.39204C22.1665 7.38028 22.0076 7.32186 21.8737 7.22353C21.7398 7.12521 21.6365 6.991 21.5756 6.83641C21.5148 6.68183 21.499 6.5132 21.53 6.35L21.74 5.09L20.83 4.2C20.7097 4.08561 20.6242 3.93953 20.5834 3.77862C20.5426 3.61772 20.5481 3.44855 20.5994 3.29065C20.6506 3.13275 20.7455 2.99257 20.873 2.88629C21.0005 2.78 21.1555 2.71195 21.32 2.69L22.58 2.5L23.15 1.36C23.2241 1.21271 23.3377 1.08891 23.4781 1.00241C23.6185 0.915901 23.7801 0.870094 23.945 0.870094C24.1099 0.870094 24.2716 0.915901 24.4119 1.00241C24.5523 1.08891 24.6659 1.21271 24.74 1.36L25.31 2.5L26.57 2.69C26.7346 2.71195 26.8895 2.78 27.0171 2.88629C27.1446 2.99257 27.2394 3.13275 27.2907 3.29065C27.3419 3.44855 27.3474 3.61772 27.3066 3.77862C27.2658 3.93953 27.1803 4.08561 27.06 4.2L26.15 5.09L26.36 6.35C26.391 6.5132 26.3752 6.68183 26.3144 6.83641C26.2536 6.991 26.1502 7.12521 26.0164 7.22353C25.8825 7.32186 25.7235 7.38028 25.5578 7.39204C25.3921 7.4038 25.2264 7.36843 25.08 7.29L23.94 6.69Z" fill="#FFE500" stroke="#45413C" stroke-linecap="round" stroke-linejoin="round"/>
<path d="M25.68 28.33H22.21C22.1496 28.3299 22.0898 28.3422 22.0344 28.3661C21.979 28.3901 21.929 28.4252 21.8878 28.4693C21.8465 28.5134 21.8147 28.5655 21.7945 28.6224C21.7742 28.6793 21.7659 28.7397 21.77 28.8L22 31.44C22.0868 31.8976 22.3305 32.3107 22.6893 32.6078C23.048 32.9049 23.4992 33.0675 23.965 33.0675C24.4308 33.0675 24.882 32.9049 25.2407 32.6078C25.5995 32.3107 25.8432 31.8976 25.93 31.44L26.14 28.8C26.1443 28.738 26.1354 28.6758 26.114 28.6175C26.0925 28.5592 26.059 28.5061 26.0155 28.4617C25.9721 28.4173 25.9197 28.3826 25.8619 28.3599C25.804 28.3372 25.7421 28.327 25.68 28.33Z" fill="#FF866E" stroke="#45413C" stroke-linecap="round" stroke-linejoin="round"/>
<path d="M28.38 23.45C28.38 23.8027 28.5201 24.141 28.7696 24.3905C29.019 24.6399 29.3573 24.78 29.71 24.78C30.0627 24.78 30.401 24.6399 30.6505 24.3905C30.8999 24.141 31.04 23.8027 31.04 23.45C31.04 23.0973 30.8999 22.759 30.6505 22.5095C30.401 22.2601 30.0627 22.12 29.71 22.12C29.3573 22.12 29.019 22.2601 28.7696 22.5095C28.5201 22.759 28.38 23.0973 28.38 23.45ZM16.85 23.45C16.85 23.8027 16.9901 24.141 17.2396 24.3905C17.489 24.6399 17.8273 24.78 18.18 24.78C18.5327 24.78 18.871 24.6399 19.1205 24.3905C19.3699 24.141 19.51 23.8027 19.51 23.45C19.51 23.0973 19.3699 22.759 19.1205 22.5095C18.871 22.2601 18.5327 22.12 18.18 22.12C17.8273 22.12 17.489 22.2601 17.2396 22.5095C16.9901 22.759 16.85 23.0973 16.85 23.45Z" fill="#45413C" stroke="#45413C" stroke-linecap="round" stroke-linejoin="round"/>
<path d="M32.93 28.11C32.93 28.64 32.21 29.11 31.32 29.11C30.43 29.11 29.71 28.67 29.71 28.11C29.71 27.55 30.43 27.11 31.32 27.11C32.21 27.11 32.93 27.58 32.93 28.11ZM18.18 28.18C18.18 28.72 17.46 29.18 16.57 29.18C15.68 29.18 14.96 28.75 14.96 28.18C14.96 27.61 15.68 27.18 16.57 27.18C17.46 27.18 18.18 27.65 18.18 28.18Z" fill="#FFCEBF"/>
<path d="M26.6 15.47C26.6 15.8227 26.7401 16.161 26.9896 16.4105C27.239 16.6599 27.5773 16.8 27.93 16.8C28.2827 16.8 28.621 16.6599 28.8705 16.4105C29.1199 16.161 29.26 15.8227 29.26 15.47C29.26 15.1173 29.1199 14.779 28.8705 14.5295C28.621 14.2801 28.2827 14.14 27.93 14.14C27.5773 14.14 27.239 14.2801 26.9896 14.5295C26.7401 14.779 26.6 15.1173 26.6 15.47Z" fill="#FFE500" stroke="#45413C" stroke-linecap="round" stroke-linejoin="round"/>
<path d="M29.71 13.26C29.71 13.6127 29.8501 13.951 30.0995 14.2005C30.349 14.4499 30.6873 14.59 31.04 14.59C31.3927 14.59 31.731 14.4499 31.9804 14.2005C32.2299 13.951 32.37 13.6127 32.37 13.26C32.37 12.9073 32.2299 12.569 31.9804 12.3195C31.731 12.0701 31.3927 11.93 31.04 11.93C30.6873 11.93 30.349 12.0701 30.0995 12.3195C29.8501 12.569 29.71 12.9073 29.71 13.26Z" fill="#FF6242" stroke="#45413C" stroke-linecap="round" stroke-linejoin="round"/>
<path d="M22.61 15.92C22.61 16.2727 22.7501 16.611 22.9995 16.8605C23.249 17.1099 23.5872 17.25 23.94 17.25C24.2927 17.25 24.631 17.1099 24.8804 16.8605C25.1299 16.611 25.27 16.2727 25.27 15.92C25.27 15.5673 25.1299 15.229 24.8804 14.9795C24.631 14.7301 24.2927 14.59 23.94 14.59C23.5872 14.59 23.249 14.7301 22.9995 14.9795C22.7501 15.229 22.61 15.5673 22.61 15.92Z" fill="#FF6196" stroke="#45413C" stroke-linecap="round" stroke-linejoin="round"/>
<path d="M18.63 15.47C18.63 15.6447 18.6644 15.8176 18.7312 15.979C18.7981 16.1403 18.8961 16.2869 19.0196 16.4105C19.1431 16.534 19.2897 16.6319 19.451 16.6988C19.6124 16.7656 19.7853 16.8 19.96 16.8C20.1347 16.8 20.3076 16.7656 20.469 16.6988C20.6303 16.6319 20.777 16.534 20.9005 16.4105C21.024 16.2869 21.1219 16.1403 21.1888 15.979C21.2556 15.8176 21.29 15.6447 21.29 15.47C21.29 15.2953 21.2556 15.1224 21.1888 14.961C21.1219 14.7997 21.024 14.653 20.9005 14.5295C20.777 14.406 20.6303 14.3081 20.469 14.2412C20.3076 14.1744 20.1347 14.14 19.96 14.14C19.7853 14.14 19.6124 14.1744 19.451 14.2412C19.2897 14.3081 19.1431 14.406 19.0196 14.5295C18.8961 14.653 18.7981 14.7997 18.7312 14.961C18.6644 15.1224 18.63 15.2953 18.63 15.47Z" fill="#00DFEB" stroke="#45413C" stroke-linecap="round" stroke-linejoin="round"/>
<path d="M15.52 13.26C15.52 13.6127 15.6601 13.951 15.9095 14.2005C16.159 14.4499 16.4973 14.59 16.85 14.59C17.2027 14.59 17.541 14.4499 17.7904 14.2005C18.0399 13.951 18.18 13.6127 18.18 13.26C18.18 12.9073 18.0399 12.569 17.7904 12.3195C17.541 12.0701 17.2027 11.93 16.85 11.93C16.4973 11.93 16.159 12.0701 15.9095 12.3195C15.6601 12.569 15.52 12.9073 15.52 13.26Z" fill="#FFE500" stroke="#45413C" stroke-linecap="round" stroke-linejoin="round"/>
</svg>
